PathFileType	4	(X/Y/Z)	abd.trc
DataRate	CameraRate	NumFrames	NumMarkers	Units	OrigDataRate	OrigDataStartFrame	OrigNumFrames
100.0	100.0	7	17	mm	100.0	1041	1189
Frame#	Time	STER			XIPH			T10			T1			CLAV_SC			CLAV_AC			SCAP_AA			SCAP_CP			SCAP_TS			SCAP_IA			DELT			ARMl			EPICm			EPICl			LARM_elb			STYLr			STYLu		
		X1	Y1	Z1	X2	Y2	Z2	X3	Y3	Z3	X4	Y4	Z4	X5	Y5	Z5	X6	Y6	Z6	X7	Y7	Z7	X8	Y8	Z8	X9	Y9	Z9	X10	Y10	Z10	X11	Y11	Z11	X12	Y12	Z12	X13	Y13	Z13	X14	Y14	Z14	X15	Y15	Z15	X16	Y16	Z16	X17	Y17	Z17

1041	10.4	393.2668762207031	90.6583480834961	1437.3739013671875	390.010986328125	145.81227111816406	1275.874267578125	371.88482666015625	-90.33653259277344	1239.8470458984375	359.3414611816406	-66.07215881347656	1472.222900390625	428.53155517578125	79.62954711914062	1441.80078125	569.8248291015625	-8.232151985168457	1456.1800537109375	569.0327758789062	-53.930362701416016	1438.3404541015625	512.2332153320312	-56.26823425292969	1468.578125	490.3168029785156	-108.90735626220703	1414.0174560546875	472.1326904296875	-115.70709991455078	1276.0804443359375	637.2304077148438	-37.09532928466797	1306.978271484375	653.5751953125	-50.65691375732422	1260.4591064453125	634.8789672851562	-16.958194732666016	1097.787841796875	711.2538452148438	-57.72211837768555	1153.497802734375	657.2793579101562	-59.49974060058594	1092.9893798828125	865.7265014648438	70.01054382324219	959.6165161132812	801.107177734375	44.296566009521484	915.5692138671875
1042	10.41	393.3642883300781	90.7623519897461	1437.4342041015625	389.90289306640625	145.82904052734375	1275.939208984375	371.8367919921875	-90.28868103027344	1239.848388671875	359.2957458496094	-66.00426483154297	1472.2596435546875	428.5341491699219	79.75618743896484	1441.7352294921875	569.77685546875	-8.159625053405762	1456.3089599609375	569.0532836914062	-53.834007263183594	1438.44091796875	512.26025390625	-56.18277359008789	1468.68603515625	490.28936767578125	-108.8525161743164	1414.203857421875	472.1239929199219	-115.63409423828125	1276.083740234375	637.6326293945312	-36.92749786376953	1306.7117919921875	653.581298828125	-50.54533386230469	1260.487548828125	635.3411865234375	-16.64382553100586	1097.9091796875	711.3723754882812	-57.52907943725586	1153.624267578125	657.4673461914062	-59.29347229003906	1093.03466796875	866.003662109375	70.77655792236328	960.1887817382812	801.405029296875	45.07793045043945	915.9804077148438
1043	10.42	393.018798828125	90.83341979980469	1437.3760986328125	389.89556884765625	145.87997436523438	1275.9029541015625	371.7769470214844	-90.24862670898438	1239.859619140625	359.2229309082031	-65.91663360595703	1472.2938232421875	428.5377197265625	79.86629486083984	1441.7083740234375	569.6624145507812	-8.076398849487305	1456.33447265625	568.9382934570312	-53.76931381225586	1438.5087890625	512.1702270507812	-56.097862243652344	1468.70751953125	490.2917785644531	-108.77095794677734	1414.1180419921875	472.09930419921875	-115.58683013916016	1276.1473388671875	637.6503295898438	-36.824668884277344	1306.7969970703125	653.6346435546875	-50.42812728881836	1260.552978515625	635.5812377929688	-16.36403465270996	1098.005126953125	711.4948120117188	-57.3217887878418	1153.753173828125	657.6266479492188	-59.064571380615234	1093.078857421875	866.2583618164062	71.57347869873047	960.7472534179688	801.6371459960938	45.903751373291016	916.4120483398438
1044	10.43	393.0523986816406	90.90689086914062	1437.381103515625	389.7221374511719	145.9190673828125	1275.9039306640625	371.7587585449219	-90.22012329101562	1239.8665771484375	359.1583557128906	-65.8476333618164	1472.3153076171875	428.5450744628906	79.96125793457031	1441.5736083984375	569.61181640625	-8.012856483459473	1456.456298828125	568.939208984375	-53.68166732788086	1438.6258544921875	512.0767822265625	-56.03894805908203	1468.7667236328125	490.2563171386719	-108.69619750976562	1414.1502685546875	472.0865478515625	-115.51687622070312	1276.134765625	637.6699829101562	-36.71869659423828	1306.884033203125	653.567626953125	-50.30900573730469	1260.70458984375	635.4868774414062	-16.221845626831055	1098.0819091796875	711.588134765625	-57.09696960449219	1153.8656005859375	657.7650146484375	-58.847618103027344	1093.1455078125	866.3405151367188	72.35811614990234	961.1975708007812	801.9281616210938	46.66039276123047	916.825439453125
1045	10.44	393.342041015625	91.0382308959961	1437.3726806640625	389.9996337890625	145.9426727294922	1275.80029296875	371.72906494140625	-90.20037841796875	1239.884521484375	359.07598876953125	-65.78047180175781	1472.33837890625	428.65411376953125	80.08991241455078	1441.61328125	569.5574340820312	-7.923215866088867	1456.494140625	568.855712890625	-53.60543441772461	1438.6697998046875	512.016845703125	-55.95850372314453	1468.8140869140625	490.2048034667969	-108.64552307128906	1414.212158203125	472.052001953125	-115.46726989746094	1276.29541015625	637.470703125	-36.642642974853516	1307.13818359375	653.6433715820312	-50.137691497802734	1260.724365234375	635.8052368164062	-15.86308479309082	1098.1800537109375	711.6617431640625	-56.85076141357422	1153.99072265625	657.8846435546875	-58.559478759765625	1093.1927490234375	866.4400024414062	73.04014587402344	961.7953491210938	801.8872680664062	47.22165298461914	917.1295776367188
1046	10.450000000000001	393.1235046386719	91.08868408203125	1437.428955078125	389.93316650390625	145.9763946533203	1275.855712890625	371.7015686035156	-90.14401245117188	1239.894287109375	359.0224609375	-65.69631958007812	1472.352783203125	428.451904296875	80.11251068115234	1441.5478515625	569.4873046875	-7.842043399810791	1456.5408935546875	568.837646484375	-53.51728057861328	1438.768798828125	512.0892333984375	-55.88292694091797	1468.92626953125	490.1730041503906	-108.59614562988281	1414.3526611328125	472.0896301269531	-115.42051696777344	1276.2598876953125	637.7539672851562	-36.432064056396484	1307.0750732421875	653.6153564453125	-49.976097106933594	1260.910888671875	635.9810180664062	-15.604094505310059	1098.3480224609375	711.7335815429688	-56.602455139160156	1154.1104736328125	658.0502319335938	-58.32524490356445	1093.2373046875	866.2069091796875	73.81539916992188	962.0482788085938	801.9127807617188	47.964778900146484	917.424560546875
1047	10.46	393.11529541015625	91.18939208984375	1437.341796875	389.8824157714844	146.00352478027344	1275.823974609375	371.6619873046875	-90.09417724609375	1239.8966064453125	358.977294921875	-65.649658203125	1472.368408203125	428.5302734375	80.2287368774414	1441.4964599609375	569.3987426757812	-7.741854667663574	1456.6199951171875	568.7954711914062	-53.43952941894531	1438.81494140625	511.94879150390625	-55.84187316894531	1468.92431640625	490.1287841796875	-108.52598571777344	1414.3480224609375	472.10369873046875	-115.38357543945312	1276.35595703125	637.7723388671875	-36.2506103515625	1307.17626953125	653.738525390625	-49.77106857299805	1260.9365234375	636.2002563476562	-15.35273265838623	1098.6666259765625	711.8128051757812	-56.33314895629883	1154.23486328125	658.133544921875	-58.05901336669922	1093.2938232421875	866.2365112304688	74.52826690673828	962.4737548828125	802.25	48.90963363647461	917.8504638671875
